# This file uses centimeters as units for non-parametric coordinates.

mtllib gong.mtl
g default
v -0.105727 0.500000 0.064511
v 0.106135 0.500000 0.064511
v -0.105727 0.500000 -0.291940
v 0.106135 0.500000 -0.291940
v -0.112225 0.806640 0.074715
v -0.112825 1.226804 -0.100329
v -0.111981 1.550819 -0.360332
v -0.111222 1.842542 -0.622181
v -0.110518 2.112719 -0.820402
v -0.109906 2.347762 -0.906559
v -0.109334 2.567456 -0.922808
v -0.108711 2.806709 -0.904794
v -0.108010 3.075830 -0.872006
v -0.107233 3.374271 -0.850947
v -0.106403 3.692861 -0.866629
v -0.105625 3.991590 -0.898290
v -0.104923 4.261075 -0.910637
v -0.104298 4.501046 -0.877236
v -0.103723 4.721958 -0.778352
v -0.103108 4.957902 -0.594926
v -0.102404 5.228513 -0.351613
v -0.101643 5.520823 -0.113587
v -0.100794 5.846601 0.053503
v -0.099715 6.260894 0.061536
v 0.099444 0.825394 0.075018
v 0.099022 1.227679 -0.096148
v 0.099869 1.552787 -0.356863
v 0.100629 1.844693 -0.618870
v 0.101331 2.114447 -0.816746
v 0.101940 2.348079 -0.902125
v 0.102507 2.565932 -0.917913
v 0.103127 2.803892 -0.899864
v 0.103826 3.072561 -0.867117
v 0.104605 3.371375 -0.846022
v 0.105437 3.690903 -0.861697
v 0.106216 3.990013 -0.893390
v 0.106916 4.259056 -0.905703
v 0.107538 4.497754 -0.872349
v 0.108109 4.716858 -0.773929
v 0.108720 4.951417 -0.591273
v 0.109423 5.221617 -0.348294
v 0.110185 5.514128 -0.110098
v 0.111036 5.841047 0.057722
v 0.112125 6.258972 0.066466
v 0.099264 0.842898 -0.281151
v 0.101349 0.993135 -0.397638
v 0.101991 1.239520 -0.606991
v 0.102717 1.518198 -0.857623
v 0.103498 1.818422 -1.080310
v 0.104372 2.153780 -1.221867
v 0.105285 2.504486 -1.270837
v 0.106148 2.835634 -1.255349
v 0.106932 3.136914 -1.219691
v 0.107640 3.408874 -1.201138
v 0.108296 3.660685 -1.217273
v 0.109004 3.932357 -1.246733
v 0.109787 4.233274 -1.261508
v 0.110648 4.563703 -1.224730
v 0.111558 4.913191 -1.092828
v 0.112429 5.247647 -0.854637
v 0.113210 5.547437 -0.587595
v 0.113934 5.825527 -0.361699
v 0.114571 6.070150 -0.246473
v 0.114978 6.226259 -0.288965
v -0.112405 0.824143 -0.281454
v -0.110498 0.992259 -0.401820
v -0.109859 1.237552 -0.610460
v -0.109134 1.516047 -0.860934
v -0.108351 1.816694 -1.083966
v -0.107474 2.153463 -1.226302
v -0.106556 2.506011 -1.275731
v -0.105690 2.838452 -1.260279
v -0.104904 3.140184 -1.224581
v -0.104197 3.411771 -1.206063
v -0.103544 3.662643 -1.222204
v -0.102837 3.933934 -1.251633
v -0.102052 4.235293 -1.266442
v -0.101189 4.566995 -1.229617
v -0.100274 4.918291 -1.097251
v -0.099399 5.254133 -0.858289
v -0.098617 5.554333 -0.590914
v -0.097894 5.832223 -0.365189
v -0.097259 6.075705 -0.250691
v -0.096862 6.228182 -0.293895
v -0.121345 6.243029 -0.023280
v -0.122217 5.971728 0.001332
v -0.123119 5.690897 -0.169367
v -0.124033 5.406462 -0.454725
v -0.124954 5.119691 -0.771106
v -0.125887 4.829187 -1.034811
v -0.126826 4.537064 -1.179361
v -0.127758 4.246994 -1.222875
v -0.128680 3.960101 -1.205984
v -0.129591 3.676357 -1.168428
v -0.130496 3.394752 -1.148772
v -0.131408 3.110977 -1.173040
v -0.132330 2.824046 -1.215451
v -0.133262 2.533898 -1.235948
v -0.134201 2.241644 -1.193545
v -0.135134 1.951043 -1.049403
v -0.136056 1.664224 -0.788148
v -0.136970 1.379726 -0.472776
v -0.137873 1.098705 -0.186625
v -0.138822 0.816199 -0.007519
v -0.130684 0.500000 -0.020297
v 0.130684 0.500000 -0.020297
v 0.122308 0.834954 -0.007146
v 0.123477 1.099581 -0.181467
v 0.124383 1.381694 -0.468496
v 0.125298 1.666375 -0.784063
v 0.126218 1.952771 -1.044894
v 0.127147 2.241961 -1.188075
v 0.128080 2.532372 -1.229909
v 0.129008 2.821228 -1.209368
v 0.129929 3.107708 -1.167008
v 0.130842 3.391855 -1.142697
v 0.131749 3.674399 -1.162344
v 0.132662 3.958524 -1.199938
v 0.133583 4.244975 -1.216787
v 0.134510 4.533772 -1.173332
v 0.135443 4.824087 -1.029355
v 0.136372 5.113205 -0.766600
v 0.137292 5.399566 -0.450630
v 0.138207 5.684201 -0.165062
v 0.139112 5.966173 0.006536
v 0.139996 6.241106 -0.017199
v 0.018679 6.259850 0.219505
v 0.020601 6.241984 -0.019977
v 0.022198 6.227138 -0.218980
v 0.021702 6.072688 -0.166158
v 0.020918 5.828587 -0.307899
v 0.020025 5.550588 -0.586484
v 0.019061 5.250610 -0.916113
v 0.017984 4.915521 -1.210397
v 0.016859 4.565207 -1.373382
v 0.015796 4.234196 -1.418781
v 0.014828 3.933077 -1.400534
v 0.013956 3.661580 -1.364208
v 0.013148 3.410197 -1.344299
v 0.012275 3.138408 -1.367168
v 0.011306 2.836921 -1.411180
v 0.010241 2.505183 -1.430267
v 0.009111 2.153635 -1.369596
v 0.008032 1.817633 -1.194522
v 0.007066 1.517215 -0.919605
v 0.006171 1.238621 -0.610496
v 0.005381 0.992735 -0.352625
v 0.002909 0.834330 -0.206732
v 0.011277 0.500000 -0.219872
v 0.011277 0.500000 -0.020297
v 0.011277 0.500000 0.219872
v 0.003131 0.816826 0.232662
v 0.002510 1.227279 0.019315
v 0.003553 1.551888 -0.301921
v 0.004491 1.843711 -0.625062
v 0.005358 2.113657 -0.869370
v 0.006111 2.347934 -0.975138
v 0.006813 2.566628 -0.994876
v 0.007580 2.805179 -0.972629
v 0.008444 3.074054 -0.932207
v 0.009403 3.372698 -0.906203
v 0.010428 3.691798 -0.925544
v 0.011389 3.990734 -0.964625
v 0.012254 4.259978 -0.979835
v 0.013023 4.499258 -0.938660
v 0.013729 4.719188 -0.816980
v 0.014485 4.954380 -0.591210
v 0.015353 5.224768 -0.291265
v 0.016293 5.517187 0.002495
v 0.017342 5.843585 0.209118
vt 0.375000 0.250000
vt 0.625000 0.250000
vt 0.375000 0.500000
vt 0.625000 0.500000
vt 0.375000 0.250000
vt 0.375000 0.250000
vt 0.375000 0.250000
vt 0.375000 0.250000
vt 0.375000 0.250000
vt 0.375000 0.250000
vt 0.375000 0.250000
vt 0.375000 0.250000
vt 0.375000 0.250000
vt 0.375000 0.250000
vt 0.375000 0.250000
vt 0.375000 0.250000
vt 0.375000 0.250000
vt 0.375000 0.250000
vt 0.375000 0.250000
vt 0.375000 0.250000
vt 0.375000 0.250000
vt 0.375000 0.250000
vt 0.375000 0.250000
vt 0.375000 0.250000
vt 0.625000 0.250000
vt 0.625000 0.250000
vt 0.625000 0.250000
vt 0.625000 0.250000
vt 0.625000 0.250000
vt 0.625000 0.250000
vt 0.625000 0.250000
vt 0.625000 0.250000
vt 0.625000 0.250000
vt 0.625000 0.250000
vt 0.625000 0.250000
vt 0.625000 0.250000
vt 0.625000 0.250000
vt 0.625000 0.250000
vt 0.625000 0.250000
vt 0.625000 0.250000
vt 0.625000 0.250000
vt 0.625000 0.250000
vt 0.625000 0.250000
vt 0.625000 0.250000
vt 0.625000 0.500000
vt 0.625000 0.500000
vt 0.625000 0.500000
vt 0.625000 0.500000
vt 0.625000 0.500000
vt 0.625000 0.500000
vt 0.625000 0.500000
vt 0.625000 0.500000
vt 0.625000 0.500000
vt 0.625000 0.500000
vt 0.625000 0.500000
vt 0.625000 0.500000
vt 0.625000 0.500000
vt 0.625000 0.500000
vt 0.625000 0.500000
vt 0.625000 0.500000
vt 0.625000 0.500000
vt 0.625000 0.500000
vt 0.625000 0.500000
vt 0.625000 0.500000
vt 0.375000 0.500000
vt 0.375000 0.500000
vt 0.375000 0.500000
vt 0.375000 0.500000
vt 0.375000 0.500000
vt 0.375000 0.500000
vt 0.375000 0.500000
vt 0.375000 0.500000
vt 0.375000 0.500000
vt 0.375000 0.500000
vt 0.375000 0.500000
vt 0.375000 0.500000
vt 0.375000 0.500000
vt 0.375000 0.500000
vt 0.375000 0.500000
vt 0.375000 0.500000
vt 0.375000 0.500000
vt 0.375000 0.500000
vt 0.375000 0.500000
vt 0.375000 0.500000
vt 0.375000 0.386539
vt 0.375000 0.386539
vt 0.375000 0.386539
vt 0.375000 0.386539
vt 0.375000 0.386539
vt 0.375000 0.386539
vt 0.375000 0.386539
vt 0.375000 0.386539
vt 0.375000 0.386539
vt 0.375000 0.386539
vt 0.375000 0.386539
vt 0.375000 0.386539
vt 0.375000 0.386539
vt 0.375000 0.386539
vt 0.375000 0.386539
vt 0.375000 0.386539
vt 0.375000 0.386539
vt 0.375000 0.386539
vt 0.375000 0.386539
vt 0.375000 0.386539
vt 0.375000 0.386539
vt 0.625000 0.386539
vt 0.625000 0.386539
vt 0.625000 0.386539
vt 0.625000 0.386539
vt 0.625000 0.386539
vt 0.625000 0.386539
vt 0.625000 0.386539
vt 0.625000 0.386539
vt 0.625000 0.386539
vt 0.625000 0.386539
vt 0.625000 0.386539
vt 0.625000 0.386539
vt 0.625000 0.386539
vt 0.625000 0.386539
vt 0.625000 0.386539
vt 0.625000 0.386539
vt 0.625000 0.386539
vt 0.625000 0.386539
vt 0.625000 0.386539
vt 0.625000 0.386539
vt 0.625000 0.386539
vt 0.510786 0.250000
vt 0.510786 0.386539
vt 0.510786 0.500000
vt 0.510786 0.500000
vt 0.510786 0.500000
vt 0.510786 0.500000
vt 0.510786 0.500000
vt 0.510786 0.500000
vt 0.510786 0.500000
vt 0.510786 0.500000
vt 0.510786 0.500000
vt 0.510786 0.500000
vt 0.510786 0.500000
vt 0.510786 0.500000
vt 0.510786 0.500000
vt 0.510786 0.500000
vt 0.510786 0.500000
vt 0.510786 0.500000
vt 0.510786 0.500000
vt 0.510786 0.500000
vt 0.510786 0.500000
vt 0.510786 0.500000
vt 0.510786 0.500000
vt 0.510786 0.386539
vt 0.510786 0.250000
vt 0.510786 0.250000
vt 0.510786 0.250000
vt 0.510786 0.250000
vt 0.510786 0.250000
vt 0.510786 0.250000
vt 0.510786 0.250000
vt 0.510786 0.250000
vt 0.510786 0.250000
vt 0.510786 0.250000
vt 0.510786 0.250000
vt 0.510786 0.250000
vt 0.510786 0.250000
vt 0.510786 0.250000
vt 0.510786 0.250000
vt 0.510786 0.250000
vt 0.510786 0.250000
vt 0.510786 0.250000
vt 0.510786 0.250000
vt 0.510786 0.250000
vn 0.078497 0.990387 -0.113893
vn 0.018109 0.993179 -0.115184
vn 0.010290 0.996499 -0.082971
vn 0.045378 0.995709 -0.080649
vn -0.801908 -0.040818 0.596052
vn 0.037133 -0.035972 0.998663
vn -0.026673 0.212760 0.976740
vn -0.777219 0.152946 0.610359
vn -0.033445 0.511727 0.858497
vn -0.624453 0.449798 0.638545
vn -0.014096 0.682802 0.730467
vn -0.326890 0.653656 0.682551
vn -0.018845 0.674015 0.738477
vn -0.021613 0.675273 0.737251
vn -0.018307 0.512063 0.858753
vn 0.269335 0.525668 0.806928
vn -0.016521 0.229129 0.973256
vn 0.470127 0.222359 0.854129
vn -0.019787 -0.004790 0.999793
vn 0.516634 -0.005724 0.856188
vn -0.023263 -0.109901 0.993670
vn 0.494106 -0.098763 0.863774
vn -0.025155 -0.106345 0.994011
vn 0.458466 -0.094063 0.883720
vn -0.025208 -0.009988 0.999632
vn 0.441301 -0.009428 0.897309
vn -0.023371 0.086241 0.996000
vn 0.454429 0.074177 0.887689
vn -0.021511 0.085153 0.996136
vn 0.484802 0.074560 0.871440
vn -0.020561 -0.043908 0.998824
vn 0.493161 -0.043245 0.868863
vn -0.022931 -0.288442 0.957223
vn 0.416016 -0.290306 0.861773
vn -0.029905 -0.553556 0.832275
vn 0.199484 -0.568183 0.798357
vn -0.032352 -0.685186 0.727650
vn -0.075517 -0.683265 0.726255
vn -0.027989 -0.686244 0.726832
vn -0.343323 -0.651112 0.676892
vn -0.026552 -0.562189 0.826582
vn -0.596784 -0.488744 0.636379
vn -0.056830 -0.496288 0.866296
vn -0.712003 -0.347550 0.610132
vn -0.798377 -0.011029 0.602057
vn -0.006254 -0.022490 0.999728
vn -0.022520 -0.022433 0.999495
vn -0.798377 -0.011029 0.602057
vn 0.961715 0.012134 0.273785
vn 0.999731 0.022696 -0.004800
vn 0.998821 0.029782 0.038324
vn 0.969112 0.055252 0.240351
vn 0.999491 0.010595 0.030103
vn 0.987272 0.095048 0.127514
vn 0.999929 0.005862 0.010402
vn 0.992644 0.082338 0.088760
vn 0.999998 -0.000009 0.002110
vn 0.994798 0.066829 0.076887
vn 0.999935 -0.004506 -0.010454
vn 0.995959 0.045326 0.077530
vn 0.999769 -0.003293 -0.021242
vn 0.996475 0.018616 0.081800
vn 0.999878 -0.002428 -0.015441
vn 0.996555 -0.001941 0.082913
vn 0.999990 -0.003634 -0.002788
vn 0.996457 -0.011745 0.083280
vn 0.999945 -0.003562 0.009917
vn 0.996298 -0.011939 0.085134
vn 0.999812 -0.002294 0.019239
vn 0.996195 -0.003834 0.087065
vn 0.999872 -0.001929 0.015871
vn 0.996211 0.004750 0.086834
vn 0.999988 -0.001960 0.004466
vn 0.996305 0.004461 0.085775
vn 0.999957 -0.001178 -0.009198
vn 0.996255 -0.007203 0.086167
vn 0.999794 0.001032 -0.020286
vn 0.995793 -0.030870 0.086276
vn 0.999851 0.003430 -0.016901
vn 0.994704 -0.059906 0.083519
vn 0.999992 -0.002027 -0.003382
vn 0.993107 -0.081264 0.084463
vn 0.999944 -0.008552 0.006196
vn 0.990668 -0.096152 0.096600
vn 0.999686 -0.013931 0.020823
vn 0.985561 -0.108143 0.130285
vn 0.997394 -0.002006 0.072121
vn 0.970439 -0.101211 0.219098
vn 0.998126 -0.010564 0.060270
vn 0.922018 0.005752 0.387103
vn -0.020243 0.035257 -0.999173
vn 0.532339 0.042498 -0.845464
vn 0.532339 0.042498 -0.845464
vn -0.033189 0.034946 -0.998838
vn 0.084260 -0.636635 -0.766548
vn 0.405133 -0.581037 -0.705878
vn 0.241051 -0.652584 -0.718351
vn 0.031133 -0.665470 -0.745775
vn -0.018399 -0.699312 -0.714580
vn 0.018470 -0.699440 -0.714453
vn -0.310563 -0.646733 -0.696625
vn 0.021223 -0.665977 -0.745670
vn -0.586619 -0.453610 -0.670907
vn 0.017481 -0.507982 -0.861190
vn -0.744251 -0.207478 -0.634857
vn 0.015153 -0.271678 -0.962269
vn -0.790033 -0.032781 -0.612187
vn 0.017474 -0.051822 -0.998503
vn -0.786355 0.058841 -0.614966
vn 0.021737 0.087602 -0.995918
vn -0.772571 0.067999 -0.631277
vn 0.025198 0.106521 -0.993991
vn -0.766949 0.005210 -0.641687
vn 0.026459 0.005173 -0.999637
vn -0.771032 -0.058910 -0.634066
vn 0.024207 -0.098242 -0.994868
vn -0.782005 -0.052055 -0.621095
vn 0.021564 -0.084343 -0.996203
vn -0.784367 0.027369 -0.619693
vn 0.019665 0.036894 -0.999126
vn -0.741816 0.190905 -0.642856
vn 0.019874 0.245475 -0.969199
vn -0.583323 0.440407 -0.682479
vn 0.025784 0.483206 -0.875127
vn -0.293021 0.643206 -0.707408
vn 0.034817 0.654673 -0.755110
vn 0.027007 0.689471 -0.723810
vn 0.032258 0.689168 -0.723883
vn 0.317186 0.569968 -0.757978
vn 0.028227 0.569364 -0.821601
vn 0.476078 0.408013 -0.779022
vn 0.045374 0.464695 -0.884307
vn 0.008675 -0.296310 -0.955052
vn 0.535363 -0.253614 -0.805646
vn 0.535363 -0.253614 -0.805646
vn 0.008600 -0.296310 -0.955053
vn -0.999719 -0.023047 -0.005592
vn -0.955534 -0.033265 0.292998
vn -0.965641 0.038764 0.256971
vn -0.999157 0.007723 0.040324
vn -0.986303 0.100074 0.131115
vn -0.999651 0.011501 0.023784
vn -0.992530 0.085971 0.086561
vn -0.999999 0.001332 -0.000251
vn -0.994793 0.070065 0.074008
vn -0.999941 -0.004848 -0.009757
vn -0.996091 0.048840 0.073598
vn -0.999618 -0.007886 -0.026499
vn -0.996791 0.023281 0.076591
vn -0.999142 -0.002156 -0.041371
vn -0.997049 0.003974 0.076660
vn -0.999379 0.003045 -0.035119
vn -0.997092 -0.005101 0.076036
vn -0.999779 0.003893 -0.020669
vn -0.997041 -0.005257 0.076697
vn -0.999971 0.004043 -0.006415
vn -0.997003 0.002011 0.077340
vn -0.999987 0.003687 0.003596
vn -0.997060 0.009566 0.076026
vn -0.999997 0.002396 -0.000026
vn -0.997213 0.009270 0.074027
vn -0.999923 0.002473 -0.012128
vn -0.997306 -0.000671 0.073345
vn -0.999641 0.005389 -0.026234
vn -0.997159 -0.020414 0.072510
vn -0.999273 0.011263 -0.036417
vn -0.996609 -0.044225 0.069384
vn -0.999404 0.017249 -0.029900
vn -0.995705 -0.061338 0.069355
vn -0.999812 0.013466 -0.013918
vn -0.994261 -0.072806 0.078391
vn -0.999963 0.007362 -0.004451
vn -0.991172 -0.081649 0.104460
vn -0.999978 0.001525 0.006422
vn -0.981945 -0.075620 0.173395
vn -0.998954 0.006897 0.045199
vn -0.951651 0.010132 0.307016
vn -0.999437 -0.005319 0.033119
vn 0.000000 -1.000000 0.000000
vn 0.000000 -1.000000 0.000000
vn 0.000000 -1.000000 0.000000
vn 0.000000 -1.000000 0.000000
vn -0.995726 0.018659 -0.090452
vn -0.995278 -0.012426 -0.096269
vn -0.994422 0.063878 -0.083929
vn -0.992051 0.088153 -0.089802
vn -0.987480 0.108056 -0.114923
vn -0.975315 0.125141 -0.181934
vn -0.931338 0.110362 -0.347031
vn -0.875549 0.014341 -0.482916
vn -0.885443 -0.041384 -0.462902
vn -0.899423 -0.037417 -0.435475
vn -0.904807 0.000507 -0.425821
vn -0.898011 0.045932 -0.437569
vn -0.869066 0.051188 -0.492041
vn -0.851531 -0.037710 -0.522946
vn -0.935216 -0.127695 -0.330251
vn -0.975681 -0.127985 -0.177950
vn -0.986209 -0.111708 -0.122118
vn -0.990507 -0.094307 -0.100010
vn -0.992674 -0.074707 -0.094964
vn -0.994633 -0.039139 -0.095774
vn -0.995378 -0.019615 -0.094014
vn 0.000000 -1.000000 0.000000
vn 0.000000 -1.000000 0.000000
vn 0.995927 0.025456 -0.086498
vn 0.996410 -0.016556 -0.083021
vn 0.994722 -0.069119 -0.075832
vn 0.993549 -0.080510 -0.079871
vn 0.990512 -0.095517 -0.098804
vn 0.983160 -0.110001 -0.145933
vn 0.954552 -0.111732 -0.276307
vn 0.891410 -0.036998 -0.451686
vn 0.902150 0.040087 -0.429557
vn 0.922250 0.035368 -0.384974
vn 0.925642 -0.004718 -0.378371
vn 0.919547 -0.038640 -0.391075
vn 0.906220 -0.042504 -0.420664
vn 0.895627 0.008511 -0.444725
vn 0.940877 0.098171 -0.324211
vn 0.978330 0.113733 -0.173017
vn 0.988899 0.098815 -0.110969
vn 0.992860 0.080598 -0.087941
vn 0.994867 0.057510 -0.083264
vn 0.995788 0.012876 -0.090773
vn 0.995122 -0.017884 -0.097017
vn 0.008986 0.998037 -0.061976
vn 0.026451 0.997750 -0.061615
vn -0.073954 0.990452 -0.116341
vn -0.033942 0.996070 -0.081812
vn -0.011492 0.997987 -0.062374
vn -0.614952 -0.229737 -0.754357
vn -0.614952 -0.229737 -0.754357
vn -0.324568 0.574162 -0.751660
vn -0.529393 0.396026 -0.750271
vn 0.046263 0.689305 -0.722993
vn 0.417498 0.610997 -0.672590
vn 0.698909 0.386155 -0.602006
vn 0.824337 0.157337 -0.543796
vn 0.853797 0.018356 -0.520283
vn 0.850462 -0.048439 -0.523802
vn 0.841340 -0.054120 -0.537789
vn 0.838132 0.000519 -0.545467
vn 0.842269 0.053528 -0.536393
vn 0.851758 0.045458 -0.521959
vn 0.852758 -0.032580 -0.521290
vn 0.814581 -0.184631 -0.549881
vn 0.676286 -0.416340 -0.607699
vn 0.395286 -0.626978 -0.671303
vn 0.060953 -0.698062 -0.713438
vn -0.231934 -0.656997 -0.717330
vn -0.406652 -0.588233 -0.699010
vn -0.608487 0.014342 -0.793435
vn -0.608487 0.014342 -0.793435
vn 0.000000 -1.000000 0.000000
vn 0.000000 -1.000000 0.000000
vn 0.000000 -1.000000 0.000000
vn 0.853405 0.000807 0.521247
vn 0.819121 0.161076 0.550540
vn 0.667653 0.431917 0.606372
vn 0.346012 0.648363 0.678160
vn -0.013667 0.675543 0.737194
vn -0.352258 0.513962 0.782149
vn -0.567503 0.210894 0.795904
vn -0.616656 -0.002167 0.787230
vn -0.598253 -0.088019 0.796459
vn -0.565104 -0.084687 0.820662
vn -0.547800 -0.006777 0.836582
vn -0.560338 0.071374 0.825183
vn -0.591348 0.072058 0.803190
vn -0.602681 -0.036215 0.797160
vn -0.532313 -0.268732 0.802761
vn -0.306017 -0.552510 0.775298
vn 0.017131 -0.685067 0.728278
vn 0.345927 -0.652432 0.674290
vn 0.645746 -0.470305 0.601520
vn 0.769248 -0.319407 0.553387
vn 0.851751 -0.014488 0.523747
vn 0.851751 -0.014488 0.523747
s 1
f 24/24/1 127/127/2 128/128/3 85/85/4
s 2
f 1/1/5 151/151/6 152/152/7 5/5/8
f 5/5/8 152/152/7 153/153/9 6/6/10
f 6/6/10 153/153/9 154/154/11 7/7/12
f 7/7/12 154/154/11 155/155/13 8/8/14
f 8/8/14 155/155/13 156/156/15 9/9/16
f 9/9/16 156/156/15 157/157/17 10/10/18
f 10/10/18 157/157/17 158/158/19 11/11/20
f 11/11/20 158/158/19 159/159/21 12/12/22
f 12/12/22 159/159/21 160/160/23 13/13/24
f 13/13/24 160/160/23 161/161/25 14/14/26
f 14/14/26 161/161/25 162/162/27 15/15/28
f 15/15/28 162/162/27 163/163/29 16/16/30
f 16/16/30 163/163/29 164/164/31 17/17/32
f 17/17/32 164/164/31 165/165/33 18/18/34
f 18/18/34 165/165/33 166/166/35 19/19/36
f 19/19/36 166/166/35 167/167/37 20/20/38
f 20/20/38 167/167/37 168/168/39 21/21/40
f 21/21/40 168/168/39 169/169/41 22/22/42
f 22/22/42 169/169/41 170/170/43 23/23/44
s 3
f 23/23/45 170/170/46 127/127/47 24/24/48
s 4
f 2/2/49 106/106/50 107/107/51 25/25/52
f 25/25/52 107/107/51 108/108/53 26/26/54
f 26/26/54 108/108/53 109/109/55 27/27/56
f 27/27/56 109/109/55 110/110/57 28/28/58
f 28/28/58 110/110/57 111/111/59 29/29/60
f 29/29/60 111/111/59 112/112/61 30/30/62
f 30/30/62 112/112/61 113/113/63 31/31/64
f 31/31/64 113/113/63 114/114/65 32/32/66
f 32/32/66 114/114/65 115/115/67 33/33/68
f 33/33/68 115/115/67 116/116/69 34/34/70
f 34/34/70 116/116/69 117/117/71 35/35/72
f 35/35/72 117/117/71 118/118/73 36/36/74
f 36/36/74 118/118/73 119/119/75 37/37/76
f 37/37/76 119/119/75 120/120/77 38/38/78
f 38/38/78 120/120/77 121/121/79 39/39/80
f 39/39/80 121/121/79 122/122/81 40/40/82
f 40/40/82 122/122/81 123/123/83 41/41/84
f 41/41/84 123/123/83 124/124/85 42/42/86
f 42/42/86 124/124/85 125/125/87 43/43/88
f 43/43/88 125/125/87 126/126/89 44/44/90
s 5
f 149/149/91 3/3/92 65/65/93 148/148/94
s 6
f 148/148/95 65/65/96 66/66/97 147/147/98
f 147/147/98 66/66/97 67/67/99 146/146/100
f 146/146/100 67/67/99 68/68/101 145/145/102
f 145/145/102 68/68/101 69/69/103 144/144/104
f 144/144/104 69/69/103 70/70/105 143/143/106
f 143/143/106 70/70/105 71/71/107 142/142/108
f 142/142/108 71/71/107 72/72/109 141/141/110
f 141/141/110 72/72/109 73/73/111 140/140/112
f 140/140/112 73/73/111 74/74/113 139/139/114
f 139/139/114 74/74/113 75/75/115 138/138/116
f 138/138/116 75/75/115 76/76/117 137/137/118
f 137/137/118 76/76/117 77/77/119 136/136/120
f 136/136/120 77/77/119 78/78/121 135/135/122
f 135/135/122 78/78/121 79/79/123 134/134/124
f 134/134/124 79/79/123 80/80/125 133/133/126
f 133/133/126 80/80/125 81/81/127 132/132/128
f 132/132/128 81/81/127 82/82/129 131/131/130
f 131/131/130 82/82/129 83/83/131 130/130/132
s 7
f 130/130/133 83/83/134 84/84/135 129/129/136
s 8
f 105/105/137 1/1/138 5/5/139 104/104/140
f 104/104/140 5/5/139 6/6/141 103/103/142
f 103/103/142 6/6/141 7/7/143 102/102/144
f 102/102/144 7/7/143 8/8/145 101/101/146
f 101/101/146 8/8/145 9/9/147 100/100/148
f 100/100/148 9/9/147 10/10/149 99/99/150
f 99/99/150 10/10/149 11/11/151 98/98/152
f 98/98/152 11/11/151 12/12/153 97/97/154
f 97/97/154 12/12/153 13/13/155 96/96/156
f 96/96/156 13/13/155 14/14/157 95/95/158
f 95/95/158 14/14/157 15/15/159 94/94/160
f 94/94/160 15/15/159 16/16/161 93/93/162
f 93/93/162 16/16/161 17/17/163 92/92/164
f 92/92/164 17/17/163 18/18/165 91/91/166
f 91/91/166 18/18/165 19/19/167 90/90/168
f 90/90/168 19/19/167 20/20/169 89/89/170
f 89/89/170 20/20/169 21/21/171 88/88/172
f 88/88/172 21/21/171 22/22/173 87/87/174
f 87/87/174 22/22/173 23/23/175 86/86/176
f 86/86/176 23/23/175 24/24/177 85/85/178
s 9
f 105/105/179 150/150/180 151/151/181 1/1/182
s 8
f 83/83/183 86/86/176 85/85/178 84/84/184
f 82/82/185 87/87/174 86/86/176 83/83/183
f 81/81/186 88/88/172 87/87/174 82/82/185
f 80/80/187 89/89/170 88/88/172 81/81/186
f 79/79/188 90/90/168 89/89/170 80/80/187
f 78/78/189 91/91/166 90/90/168 79/79/188
f 77/77/190 92/92/164 91/91/166 78/78/189
f 76/76/191 93/93/162 92/92/164 77/77/190
f 75/75/192 94/94/160 93/93/162 76/76/191
f 74/74/193 95/95/158 94/94/160 75/75/192
f 73/73/194 96/96/156 95/95/158 74/74/193
f 72/72/195 97/97/154 96/96/156 73/73/194
f 71/71/196 98/98/152 97/97/154 72/72/195
f 70/70/197 99/99/150 98/98/152 71/71/196
f 69/69/198 100/100/148 99/99/150 70/70/197
f 68/68/199 101/101/146 100/100/148 69/69/198
f 67/67/200 102/102/144 101/101/146 68/68/199
f 66/66/201 103/103/142 102/102/144 67/67/200
f 65/65/202 104/104/140 103/103/142 66/66/201
f 3/3/203 105/105/137 104/104/140 65/65/202
s 9
f 3/3/204 149/149/205 150/150/180 105/105/179
s 4
f 107/107/51 106/106/50 4/4/206 45/45/207
f 108/108/53 107/107/51 45/45/207 46/46/208
f 109/109/55 108/108/53 46/46/208 47/47/209
f 110/110/57 109/109/55 47/47/209 48/48/210
f 111/111/59 110/110/57 48/48/210 49/49/211
f 112/112/61 111/111/59 49/49/211 50/50/212
f 113/113/63 112/112/61 50/50/212 51/51/213
f 114/114/65 113/113/63 51/51/213 52/52/214
f 115/115/67 114/114/65 52/52/214 53/53/215
f 116/116/69 115/115/67 53/53/215 54/54/216
f 117/117/71 116/116/69 54/54/216 55/55/217
f 118/118/73 117/117/71 55/55/217 56/56/218
f 119/119/75 118/118/73 56/56/218 57/57/219
f 120/120/77 119/119/75 57/57/219 58/58/220
f 121/121/79 120/120/77 58/58/220 59/59/221
f 122/122/81 121/121/79 59/59/221 60/60/222
f 123/123/83 122/122/81 60/60/222 61/61/223
f 124/124/85 123/123/83 61/61/223 62/62/224
f 125/125/87 124/124/85 62/62/224 63/63/225
f 126/126/89 125/125/87 63/63/225 64/64/226
s 1
f 85/85/4 128/128/3 129/129/227 84/84/228
f 127/127/2 44/44/229 126/126/230 128/128/3
f 129/129/227 128/128/3 126/126/230 64/64/231
s 7
f 63/63/232 130/130/133 129/129/136 64/64/233
s 6
f 62/62/234 131/131/130 130/130/132 63/63/235
f 61/61/236 132/132/128 131/131/130 62/62/234
f 60/60/237 133/133/126 132/132/128 61/61/236
f 59/59/238 134/134/124 133/133/126 60/60/237
f 58/58/239 135/135/122 134/134/124 59/59/238
f 57/57/240 136/136/120 135/135/122 58/58/239
f 56/56/241 137/137/118 136/136/120 57/57/240
f 55/55/242 138/138/116 137/137/118 56/56/241
f 54/54/243 139/139/114 138/138/116 55/55/242
f 53/53/244 140/140/112 139/139/114 54/54/243
f 52/52/245 141/141/110 140/140/112 53/53/244
f 51/51/246 142/142/108 141/141/110 52/52/245
f 50/50/247 143/143/106 142/142/108 51/51/246
f 49/49/248 144/144/104 143/143/106 50/50/247
f 48/48/249 145/145/102 144/144/104 49/49/248
f 47/47/250 146/146/100 145/145/102 48/48/249
f 46/46/251 147/147/98 146/146/100 47/47/250
f 45/45/252 148/148/95 147/147/98 46/46/251
s 5
f 4/4/253 149/149/91 148/148/94 45/45/254
s 9
f 150/150/180 149/149/205 4/4/255 106/106/256
f 151/151/181 150/150/180 106/106/256 2/2/257
s 2
f 152/152/7 151/151/6 2/2/258 25/25/259
f 153/153/9 152/152/7 25/25/259 26/26/260
f 154/154/11 153/153/9 26/26/260 27/27/261
f 155/155/13 154/154/11 27/27/261 28/28/262
f 156/156/15 155/155/13 28/28/262 29/29/263
f 157/157/17 156/156/15 29/29/263 30/30/264
f 158/158/19 157/157/17 30/30/264 31/31/265
f 159/159/21 158/158/19 31/31/265 32/32/266
f 160/160/23 159/159/21 32/32/266 33/33/267
f 161/161/25 160/160/23 33/33/267 34/34/268
f 162/162/27 161/161/25 34/34/268 35/35/269
f 163/163/29 162/162/27 35/35/269 36/36/270
f 164/164/31 163/163/29 36/36/270 37/37/271
f 165/165/33 164/164/31 37/37/271 38/38/272
f 166/166/35 165/165/33 38/38/272 39/39/273
f 167/167/37 166/166/35 39/39/273 40/40/274
f 168/168/39 167/167/37 40/40/274 41/41/275
f 169/169/41 168/168/39 41/41/275 42/42/276
f 170/170/43 169/169/41 42/42/276 43/43/277
s 3
f 127/127/47 170/170/46 43/43/278 44/44/279
